<svg id="Capa_1" enable-background="new 0 0 512 512" height="512" viewBox="0 0 512 512" width="512" xmlns="http://www.w3.org/2000/svg"><g><g><g><path d="m256 22c-135.31 0-245 109.69-245 245 0 65.842 25.99 125.599 68.25 169.62v-30.62h-2.229c-4.836 0-8.771-3.935-8.771-8.771v-63.385c0-4.836 3.935-8.771 8.771-8.771h2.229v-99.073h26v19.24h98.437c7.14 3.769 15.179 5.76 23.269 5.76h58.09c8.09 0 16.129-1.991 23.269-5.76h80.685c18.748 0 34 15.252 34 34v16.76h75.275c-.009.074-.021.148-.03.222l1.152-1.222c1.046-9.191 1.602-18.53 1.602-28 .001-135.31-109.689-245-244.999-245z" fill="#cecefe"/></g><path d="m389 244.24h-80.936c-6.868 3.671-14.703 5.76-23.019 5.76h-58.09c-8.316 0-16.151-2.089-23.019-5.76h-98.686v196.76c0 2.206-1.794 4-4 4h-13.25v.312c12.78 12.046 26.862 22.721 42 31.82l1-.551v-101.581c0-2.206 1.794-4 4-4h150v-14c0-2.206 1.794-4 4-4h26v-53c0-2.206 1.794-4 4-4h105v-16.76c0-19.33-15.67-35-35-35z" fill="#fedf30"/><g><g><path d="m130 375c0-2.761 2.239-5 5-5h3v-125.76h-31.75v79.833h1.229c5.396 0 9.771 4.375 9.771 9.771v1.19c0 5.396-4.375 9.771-9.771 9.771 5.396 0 9.771 4.375 9.771 9.771v1.19c0 5.396-4.375 9.771-9.771 9.771 5.396 0 9.771 4.375 9.771 9.771v1.19c0 5.396-4.375 9.771-9.771 9.771 5.396 0 9.771 4.375 9.771 9.771v1.19c0 5.396-4.375 9.771-9.771 9.771h-1.229v34c0 2.761-2.239 5-5 5h-12.503c12.582 11.761 26.409 22.204 41.253 31.128z" fill="#fed402"/></g></g><g><g><path d="m324.25 244.24h36v51.76h-36z" fill="#0182fc"/></g></g><g><g><path d="m324.25 244.24h20.75v50.76h-20.75z" fill="#0172fb"/></g></g><path d="m289 466c-2.761 0-5 2.239-5 5v39.398c112.931-12.851 202.547-102.467 215.398-215.398h-180.398c-2.761 0-5 2.239-5 5v52h-25c-2.761 0-5 2.239-5 5v47c0 2.761 2.239 5 5 5h25v57z" fill="#fe9901"/><g><path d="m151.75 244.24h36v126.76h-36z" fill="#0182fc"/></g><g><path d="m151.75 244.24h20.25v125.76h-20.25z" fill="#0172fb"/></g><path d="m285.045 250h-58.09c-8.316 0-16.151-2.089-23.019-5.76h-2.242v9.453c-.001 29.945 24.362 54.307 54.306 54.307s54.307-24.362 54.307-54.307v-9.453h-2.242c-6.869 3.671-14.704 5.76-23.02 5.76z" fill="#fff"/><path d="m289 408c-2.206 0-4-1.794-4-4v-34h-150c-2.761 0-5 2.239-5 5v102.146c36.817 22.123 79.92 34.854 126 34.854 9.469 0 18.811-.546 28-1.593l1-1.133v-38.274c0-2.206 1.794-4 4-4h26v-59z" fill="#60b7ff"/><g><path d="m157.25 395.5c0-2.958 1.033-5.671 2.75-7.812v-12.688c0-2.761 2.239-5 5-5h-30c-2.761 0-5 2.239-5 5v102.146c9.592 5.763 19.614 10.883 30 15.312v-89.147c-1.717-2.14-2.75-4.853-2.75-7.811z" fill="#26a6fe"/></g><g><g><path d="m355.809 126h-21.764v54.887c0 .541-.023 1.076-.041 1.613h11.996c8.284 0 15-6.716 15-15v-30.168c0-4.53-2.017-8.582-5.191-11.332z" fill="#ffbd86"/><path d="m177.955 126h-21.764c-3.174 2.75-5.191 6.802-5.191 11.332v30.168c0 8.284 6.716 15 15 15h11.996c-.018-.537-.041-1.072-.041-1.613z" fill="#fed2a4"/></g><path d="m285.045 250h-58.09c-1.778 0-3.532-.101-5.261-.286v3.98c0 18.946 15.359 34.306 34.306 34.306 18.947 0 34.306-15.36 34.306-34.307v-3.98c-1.729.186-3.483.287-5.261.287z" fill="#fed2a4"/><g><path d="m242.387 253.693v-2.693h-15.432c-1.777 0-3.532-.096-5.261-.277v2.97c0 18.947 15.359 34.307 34.306 34.307 3.606 0 7.081-.56 10.346-1.591-13.889-4.389-23.959-17.375-23.959-32.716z" fill="#ffbd86"/></g><path d="m176.955 126v34l1 3.681c3.895 13.523 13.275 24.963 26.365 31.458.846.419 1.744.632 2.67.632 3.313 0 6.01-2.696 6.01-6.009v-5.188c0-4.962 4.037-9 9-9h68c4.963 0 9 4.038 9 9v5.188c0 3.313 2.696 6.009 6.01 6.009.926 0 1.824-.213 2.671-.633 13.09-6.494 22.47-17.934 26.364-31.457l1-3.681v-34z" fill="#fed2a4"/><g><g><path d="m176.955 149.427c0 19.644 11.329 36.641 27.809 44.816 1.069.53 2.196.636 3.236.419v-67.662h-31.045z" fill="#ffbd86"/></g></g><g><path d="m307.236 194.242c-3.328 1.651-7.236-.766-7.236-4.481v-5.188c0-5.523-4.477-10-10-10h-68c-5.523 0-10 4.477-10 10v5.188c0 3.715-3.908 6.132-7.236 4.481-16.48-8.175-27.809-25.172-27.809-44.816v51.574c0 27.614 22.386 50 50 50h58.09c27.614 0 50-22.386 50-50v-51.573c0 19.644-11.329 36.64-27.809 44.815z" fill="#d88a55"/></g><g><path d="m367.5 127h-223c-2.761 0-5-2.239-5-5v-10c0-2.761 2.239-5 5-5h223c2.761 0 5 2.239 5 5v10c0 2.761-2.239 5-5 5z" fill="#fed402"/></g><g><path d="m208 247.271v-52.609c-1.04.217-2.167.111-3.236-.419-16.48-8.175-27.809-25.172-27.809-44.816v51.573c0 20.903 12.832 38.802 31.045 46.271z" fill="#c57a44"/></g><g><path d="m266 226.239h-20c-11.046 0-20-8.954-20-20v-6.904c0-5.523 4.477-10 10-10h40c5.523 0 10 4.477 10 10v6.904c0 11.045-8.954 20-20 20z" fill="#fed2a4"/></g></g><g><path d="m264 181.5h-9c-6.893 0-12.5-5.607-12.5-12.5v-17c0-4.142 3.357-7.5 7.5-7.5s7.5 3.358 7.5 7.5v14.5h6.5c4.143 0 7.5 3.358 7.5 7.5s-3.357 7.5-7.5 7.5z" fill="#a44f3e"/></g><g><path d="m256 216.94c-8.439 0-16.879-3.212-23.304-9.637-2.929-2.929-2.929-7.678 0-10.606 2.93-2.929 7.678-2.929 10.607 0 3.395 3.395 7.904 5.265 12.696 5.265s9.302-1.87 12.696-5.265c2.93-2.929 7.678-2.929 10.607 0s2.929 7.678 0 10.606c-6.423 6.425-14.863 9.637-23.302 9.637z" fill="#a44f3e"/></g><g><g><g><circle cx="213.57" cy="149.5" fill="#a44f3e" r="12.5"/></g></g><g><g><circle cx="298.43" cy="149.5" fill="#a44f3e" r="12.5"/></g></g></g><path d="m356 108v-19.668c0-46.422-37.633-84.055-84.055-84.055h-31.89c-46.422 0-84.055 37.632-84.055 84.055v19.668z" fill="#fedf30"/><g><path d="m176 107v-18.668c0-46.422 37.633-84.055 84.055-84.055h-20c-46.422 0-84.055 37.632-84.055 84.055v18.668z" fill="#fed402"/></g><path d="m283 108v-103c0-2.761-2.239-5-5-5h-44c-2.761 0-5 2.239-5 5v103z" fill="#fac600"/><path d="m266.5 108v-71.042c0-2.761-2.239-5-5-5h-11c-2.761 0-5 2.239-5 5v71.042z" fill="#fedf30"/><g><path d="m367.5 127h-223c-2.761 0-5-2.239-5-5v-10c0-2.761 2.239-5 5-5h223c2.761 0 5 2.239 5 5v10c0 2.761-2.239 5-5 5z" fill="#fed402"/></g><g><path d="m180 122v-10c0-2.761 2.239-5 5-5h-40.5c-2.761 0-5 2.239-5 5v10c0 2.761 2.239 5 5 5h40.5c-2.761 0-5-2.239-5-5z" fill="#fac600"/></g><g><g fill="#d88a55"><path d="m78.25 406v35c0 2.761 2.239 5 5 5h18c2.761 0 5-2.239 5-5v-35z"/><path d="m106 225h-27.5c-.086 0-.166-.02-.25-.025v100.099h28v-100.099c-.084.005-.164.025-.25.025z"/></g><g fill="#c57a44"><path d="m78.5 226c-.086 0-.165-.021-.25-.025v98.098h10.75v-98.073z"/><path d="m89 441v-34h-10.75v34c0 2.761 2.239 5 5 5h10.75c-2.761 0-5-2.239-5-5z"/></g><path d="m73.5 200v21c0 2.761 2.239 5 5 5h27.5c2.761 0 5-2.239 5-5v-21z" fill="#9c9ccc"/><g><path d="m88.5 221v-20h-15v20c0 2.761 2.239 5 5 5h15c-2.761 0-5-2.239-5-5z" fill="#8383b3"/></g><path d="m120 135v-7c0-2.761-2.239-5-5-5h-45.5c-2.761 0-5 2.239-5 5v7z" fill="#9c9ccc"/><g><path d="m85.5 134v-6c0-2.761 2.239-5 5-5h-21c-2.761 0-5 2.239-5 5v6z" fill="#8383b3"/></g><g><g><g><g><path d="m77.021 324.073h30.458c5.396 0 9.771 4.375 9.771 9.771v1.19c0 5.396-4.375 9.771-9.771 9.771 5.396 0 9.771 4.375 9.771 9.771v1.19c0 5.396-4.375 9.771-9.771 9.771 5.396 0 9.771 4.375 9.771 9.771v1.19c0 5.396-4.375 9.771-9.771 9.771 5.396 0 9.771 4.375 9.771 9.771v1.19c0 5.396-4.375 9.771-9.771 9.771h-30.458c-5.396 0-9.771-4.375-9.771-9.771v-63.385c0-5.397 4.375-9.772 9.771-9.772z" fill="#fff"/></g></g></g><g><path d="m88 397.229v-63.385c0-5.396 4.375-9.771 9.771-9.771h-20.75c-5.396 0-9.771 4.375-9.771 9.771v63.385c0 5.396 4.375 9.771 9.771 9.771h20.75c-5.396 0-9.771-4.375-9.771-9.771z" fill="#eaf6ff"/></g></g></g><path d="m285 471c0-2.206 1.794-4 4-4h26v-59h-26c-2.206 0-4-1.794-4-4v-4h-83c-2.761 0-5 2.239-5 5v63c0 2.761 2.239 5 5 5h83z" fill="#0182fc"/><g><path d="m227 468v-63c0-2.761 2.239-5 5-5h-30c-2.761 0-5 2.239-5 5v63c0 2.761 2.239 5 5 5h30c-2.761 0-5-2.239-5-5z" fill="#0172fb"/></g><g><g><circle cx="169.75" cy="395.5" fill="#0182fc" r="12.5"/></g><g><path d="m168 395.5c0-4.977 2.916-9.261 7.125-11.272-1.63-.779-3.448-1.228-5.375-1.228-6.904 0-12.5 5.596-12.5 12.5s5.596 12.5 12.5 12.5c1.927 0 3.745-.449 5.375-1.228-4.209-2.011-7.125-6.295-7.125-11.272z" fill="#0172fb"/></g></g><g><path d="m143 201h-101.5c-5.523 0-10-4.477-10-10v-47c0-5.523 4.477-10 10-10h101.5c5.523 0 10 4.477 10 10v47c0 5.523-4.477 10-10 10z" fill="#5a5a8a"/></g><g><path d="m63 191v-47c0-5.523 4.477-10 10-10h-31.5c-5.523 0-10 4.477-10 10v47c0 5.523 4.477 10 10 10h31.5c-5.523 0-10-4.477-10-10z" fill="#444474"/></g><g><g><path d="m182.041 87h28.929c2.761 0 5-2.239 5-5v-28.929c0-4.455-5.386-6.685-8.536-3.536l-28.929 28.929c-3.15 3.15-.919 8.536 3.536 8.536z" fill="#fac600"/></g><g><path d="m329.959 87h-28.929c-2.761 0-5-2.239-5-5v-28.929c0-4.455 5.386-6.685 8.536-3.536l28.929 28.929c3.15 3.15.919 8.536-3.536 8.536z" fill="#fac600"/></g></g></g><path d="m499.398 295h-180.398c-2.761 0-5 2.239-5 5v52h171.844c6.693-18.09 11.299-37.187 13.554-57z" fill="#fe9901"/><path d="m337 327v-32h-18c-2.761 0-5 2.239-5 5v52h171.844c2.419-6.538 4.555-13.212 6.417-20h-150.261c-2.761 0-5-2.239-5-5z" fill="#fb8801"/><path d="m485.844 352h-196.844c-2.761 0-5 2.239-5 5v47c0 2.761 2.239 5 5 5h166.673c12.425-17.44 22.617-36.581 30.171-57z" fill="#fe9901"/><path d="m315.156 389c-2.761 0-5-2.239-5-5v-32h-21.156c-2.761 0-5 2.239-5 5v47c0 2.761 2.239 5 5 5h166.673c4.589-6.441 8.871-13.116 12.831-20z" fill="#fb8801"/><path d="m314 409v57h84.923c21.898-15.755 41.095-35.026 56.75-57z" fill="#fe9901"/><g><path d="m419.676 446h-79.676c-2.761 0-5-2.239-5-5v-32h-21v57h84.923c7.228-5.2 14.146-10.8 20.753-16.739z" fill="#fb8801"/></g><path d="m398.923 466h-109.923c-2.761 0-5 2.239-5 5v39.398c42.575-4.845 81.837-20.593 114.923-44.398z" fill="#fea613"/><path d="m305 471c0-2.761 2.239-5 5-5h-21c-2.761 0-5 2.239-5 5v39.398c7.097-.808 14.1-1.925 21-3.326z" fill="#fb8801"/><g fill="#ffbd86"><path d="m419.676 295h15v57h-15z"/><path d="m419.676 449.291c5.207-4.679 10.21-9.578 15-14.682v-25.609h-15z"/><path d="m391 352h15v57h-15z"/></g></g></svg>