<svg id="Layer_5" enable-background="new 0 0 64 64" height="512" viewBox="0 0 64 64" width="512" xmlns="http://www.w3.org/2000/svg"><g><g><g><path d="m30 34h2c4.42 0 8-3.58 8-8s-3.58-8-8-8-8 3.58-8 8h-6v-3l2.57-.65c.2-.64.47-1.25.77-1.84l-1.36-2.29 4.24-4.24 2.29 1.36c.59-.3 1.2-.57 1.84-.77l.65-2.57h6l.65 2.57c.64.2 1.25.47 1.84.77l2.29-1.36 4.24 4.24-1.36 2.29c.3.59.57 1.2.77 1.84l2.57.65v6l-2.57.65c-.2.64-.47 1.25-.77 1.84l1.36 2.29-4.24 4.24-2.29-1.36c-.59.3-1.2.57-1.84.77l-.65 2.57h-5-1v-6z" fill="#ffc729"/></g><g><path d="m32 18c4.42 0 8 3.58 8 8s-3.58 8-8 8h-2c1.1 0 2-.9 2-2v-2c2.21 0 4-1.79 4-4s-1.79-4-4-4-4 1.79-4 4h-4c0-4.42 3.58-8 8-8z" fill="#fcd770"/></g><g><path d="m5 34h24v6h-24z" fill="#b4dd7f"/></g><g><path d="m5 48h24v6h-24z" fill="#b4dd7f"/></g><g><path d="m2 60v-4c0-1.1.9-2 2-2h1 24 1c1.1 0 2 .9 2 2v4c0 1.1-.9 2-2 2h-26c-1.1 0-2-.9-2-2z" fill="#ff826e"/></g><g><path d="m32 42v4c0 1.1-.9 2-2 2h-1-24-1c-1.1 0-2-.9-2-2v-4c0-1.1.9-2 2-2h1 24 1c1.1 0 2 .9 2 2z" fill="#ff826e"/></g><g><path d="m2 32v-4c0-1.1.9-2 2-2h10 4 6 4 2c1.1 0 2 .9 2 2v2 2c0 1.1-.9 2-2 2h-1-24-1c-1.1 0-2-.9-2-2z" fill="#ff826e"/></g><g><circle cx="56" cy="5" fill="#ff826e" r="3"/></g><g><circle cx="32" cy="5" fill="#ff826e" r="3"/></g><g><circle cx="14" cy="5" fill="#ff826e" r="3"/></g><g><path d="m62 18v8h-6-6v-8h6z" fill="#e6e9ed"/></g><g><path d="m62 32v8h-6-6v-8h6z" fill="#e6e9ed"/></g><g><path d="m62 46v8h-12v-8h6z" fill="#e6e9ed"/></g></g><g><path d="m9 57h2v2h-2z"/><path d="m5 57h2v2h-2z"/><path d="m27 43h2v2h-2z"/><path d="m23 43h2v2h-2z"/><path d="m5 29h2v2h-2z"/><path d="m9 29h2v2h-2z"/><path d="m63 27v-10h-6v-8.142c1.721-.447 3-2 3-3.858 0-2.206-1.794-4-4-4-1.859 0-3.411 1.28-3.858 3h-16.284c-.447-1.72-1.999-3-3.858-3s-3.411 1.28-3.858 3h-10.284c-.447-1.72-1.999-3-3.858-3-2.206 0-4 1.794-4 4 0 1.858 1.279 3.411 3 3.858v16.142h-9c-1.654 0-3 1.346-3 3v4c0 1.654 1.346 3 3 3v4c-1.654 0-3 1.346-3 3v4c0 1.654 1.346 3 3 3v4c-1.654 0-3 1.346-3 3v4c0 1.654 1.346 3 3 3h26c1.654 0 3-1.346 3-3v-4c0-1.654-1.346-3-3-3v-4c1.654 0 3-1.346 3-3v-4c0-.352-.072-.686-.184-1h2.962l.713-2.802c.318-.119.638-.252.956-.4l2.489 1.48 5.342-5.342-1.479-2.489c.147-.317.281-.637.4-.956l2.801-.714v-7.555l-2.802-.713c-.119-.319-.253-.639-.4-.957l1.479-2.489-5.342-5.342-2.489 1.48c-.317-.147-.638-.281-.956-.4l-.713-2.801h-7.555l-.713 2.802c-.318.119-.639.252-.956.4l-2.489-1.48-5.342 5.342 1.479 2.489c-.147.318-.281.637-.4.957l-2.801.713v2.777h-2v-16.142c1.399-.364 2.494-1.459 2.858-2.858h10.284c.447 1.72 1.999 3 3.858 3s3.411-1.28 3.858-3h16.284c.364 1.399 1.459 2.494 2.858 2.858v8.142h-6v10h6v4h-6v10h6v4h-6v10h14v-10h-6v-4h6v-10h-6v-4zm-60 5v-4c0-.551.448-1 1-1h26c.552 0 1 .449 1 1v4c0 .551-.448 1-1 1h-1-25c-.552 0-1-.449-1-1zm27-7h-.816c.414-1.161 1.514-2 2.816-2 1.654 0 3 1.346 3 3 0 1.302-.839 2.402-2 2.816v-.816c0-1.654-1.346-3-3-3zm3 7v-1.101c2.279-.465 4-2.484 4-4.899 0-2.757-2.243-5-5-5-2.414 0-4.434 1.721-4.899 4h-2.021c.488-3.387 3.401-6 6.92-6 3.859 0 7 3.14 7 7 0 3.578-2.7 6.532-6.167 6.946.1-.299.167-.614.167-.946zm-27 3h22v4h-22zm25 21v4c0 .551-.448 1-1 1h-26c-.552 0-1-.449-1-1v-4c0-.551.448-1 1-1h26c.552 0 1 .449 1 1zm-3-3h-22v-4h22zm3-11v4c0 .551-.448 1-1 1h-26c-.552 0-1-.449-1-1v-4c0-.551.448-1 1-1h25 1c.552 0 1 .449 1 1zm-12-18.223 2.354-.599.168-.528c.179-.558.416-1.125.705-1.683l.255-.493-1.246-2.095 3.143-3.143 2.095 1.246.492-.254c.56-.289 1.126-.525 1.686-.704l.528-.169.597-2.355h4.445l.598 2.354.528.169c.56.179 1.126.415 1.686.704l.492.254 2.095-1.246 3.143 3.143-1.246 2.095.255.493c.289.559.526 1.125.705 1.683l.168.528 2.354.6v4.445l-2.354.599-.168.528c-.179.559-.416 1.125-.704 1.683l-.256.493 1.246 2.096-3.143 3.143-2.094-1.245-.493.253c-.562.29-1.129.526-1.686.704l-.528.169-.597 2.355h-4.223v-4h2c4.963 0 9-4.038 9-9s-4.037-9-9-9c-4.625 0-8.442 3.507-8.941 8h-4.059zm-5-16.777c-1.103 0-2-.897-2-2s.897-2 2-2 2 .897 2 2-.897 2-2 2zm18 0c-1.103 0-2-.897-2-2s.897-2 2-2 2 .897 2 2-.897 2-2 2zm22-2c0-1.103.897-2 2-2s2 .897 2 2-.897 2-2 2-2-.897-2-2zm7 48h-10v-6h10zm0-14h-10v-6h10zm-10-20h10v6h-10z"/><path d="m53 21h2v2h-2z"/><path d="m57 21h2v2h-2z"/><path d="m57 35h2v2h-2z"/><path d="m53 35h2v2h-2z"/><path d="m57 49h2v2h-2z"/><path d="m53 49h2v2h-2z"/></g></g></svg>