<svg id="Group_1321" data-name="Group 1321" xmlns="http://www.w3.org/2000/svg" width="519.333" height="514.375" viewBox="0 0 519.333 514.375">
  <g id="Group_58" data-name="Group 58" transform="translate(0)">
    <path id="Path_50" data-name="Path 50" d="M1122.486,757.815C846.742,758.056,622.24,980.99,619.247,1256.1H603.153c2.993-283.984,234.706-514.135,519.333-514.376Z" transform="translate(-603.153 -741.722)" fill="#f8fafe"/>
  </g>
  <g id="Group_59" data-name="Group 59" transform="translate(89.905 89.897)">
    <path id="Path_51" data-name="Path 51" d="M1043.754,757.815C817.577,758.065,633.4,940.66,630.42,1166.2H614.326c2.986-234.408,194.376-424.229,429.428-424.479Z" transform="translate(-614.326 -741.722)" fill="#f8fafe"/>
  </g>
  <g id="Group_60" data-name="Group 60" transform="translate(190.883 190.875)">
    <path id="Path_52" data-name="Path 52" d="M955.325,757.816c-170.493.25-309.387,137.551-312.356,307.408H626.875c2.97-178.725,149.081-323.251,328.45-323.5Z" transform="translate(-626.875 -741.722)" fill="#f8fafe"/>
  </g>
  <g id="Group_61" data-name="Group 61" transform="translate(284.104 284.103)">
    <path id="Path_53" data-name="Path 53" d="M873.688,757.816c-119.09.242-216.174,95.731-219.135,214.179H638.46c2.961-127.323,107.262-230.031,235.228-230.272Z" transform="translate(-638.46 -741.722)" fill="#f8fafe"/>
  </g>
</svg>
