<?xml version="1.0" encoding="UTF-8"?>
<!DOCTYPE svg PUBLIC "-//W3C//DTD SVG 1.1//EN" "http://www.w3.org/Graphics/SVG/1.1/DTD/svg11.dtd">
<!-- Creator: CorelDRAW 2019 (64-Bit Evaluation Version) -->
<svg xmlns="http://www.w3.org/2000/svg" xml:space="preserve" width="319.03mm" height="112.233mm" version="1.1" style="shape-rendering:geometricPrecision; text-rendering:geometricPrecision; image-rendering:optimizeQuality; fill-rule:evenodd; clip-rule:evenodd"
viewBox="0 0 31902.98 11223.3"
 xmlns:xlink="http://www.w3.org/1999/xlink">
 <defs>
  <style type="text/css">
   <![CDATA[
    .str0 {stroke:#D4E6FA;stroke-width:20;stroke-miterlimit:22.9256}
    .fil0 {fill:#D4E6FA}
    .fil1 {fill:url(#id0)}
   ]]>
  </style>
  <linearGradient id="id0" gradientUnits="userSpaceOnUse" x1="15683.52" y1="-34.05" x2="16203.13" y2="11260.88">
   <stop offset="0" style="stop-opacity:1; stop-color:#01B7FF"/>
   <stop offset="1" style="stop-opacity:1; stop-color:#0F9CCF"/>
  </linearGradient>
 </defs>
 <g id="Layer_x0020_1">
  <metadata id="CorelCorpID_0Corel-Layer"/>
  <g id="_1780484424112">
   <path class="fil0" d="M-8.2 3244.99l0 -2060.72c1071.7,-72.35 2177.07,273.33 3038.36,645.82 583.54,249.21 1315.78,605.62 1857.24,927.19 86.97,53.6 541.46,308.17 580.74,351.05l-634.05 195.62c-218.83,66.99 -429.24,123.27 -653.68,182.22 -1153.06,292.09 -2485.67,458.24 -3630.31,32.16 -272.13,-101.83 -333.86,-163.47 -558.3,-273.34z"/>
   <path class="fil1 str0" d="M-8.19 2683.31c224.43,109.87 286.15,171.51 558.29,273.34 1144.64,426.08 2477.25,259.93 3630.31,-32.16 224.44,-58.95 434.85,-115.23 653.68,-182.22l634.04 -195.62c67.34,-8.04 179.56,-48.24 249.7,-67 970.7,-276.01 1961.04,-509.15 2979.43,-517.19 432.05,-2.68 771.51,45.56 1181.12,99.15l0 0.61c300.57,46.67 638.84,138.26 912.88,229.85 308.68,101.83 572.45,214.38 861.48,326.93l796.94 380.52c1055.09,493.08 1913.76,442.16 3022.18,222.42 721.17,-144.7 1363.77,-265.29 2141.07,-203.66 370.4,29.48 673.46,109.87 1018.62,171.51 372.7,68.54 720.96,69.65 1100.89,54.36l0 -0.77c1593.52,-91.11 3302.07,-854.84 4679.57,-1524.78 232.85,-112.54 460.1,-241.17 687.34,-348.36l673.32 -353.73c129.06,-50.91 274.94,-144.71 406.8,-211.7 134.67,-69.67 263.72,-136.67 401.19,-209.02 255.3,-136.67 547.07,-289.41 841.65,-383.2 749.06,-235.82 1388.72,-238.5 2205.12,-176.86l0 0.29c380.02,27.41 836.45,125.85 1191.1,209.78 60.67,15.09 1061.31,276.66 1076.31,337.02l0 10642.23c-10636.27,0 -21268.72,-3.54 -31903.03,-0.66l0 -8541.08z"/>
   <path class="fil0" d="M11652.74 2618.97c28.06,-32.16 154.33,-99.15 196.43,-125.95l634.18 -369.8c968.11,-517.19 1986.73,-857.52 3154.07,-854.84 796.94,0 1504.08,257.25 2124.23,546.67 572.45,267.97 1279.59,605.62 1989.53,683.33l0 1.68c632.42,56.15 1075.49,-0.65 1653.34,-167.82 446.07,-128.63 967.89,-361.77 1332.61,-568.11 636.84,-361.76 1357.86,-629.74 2120.95,-715.49 322.63,-37.52 591.96,-29.48 914.59,-32.16l-673.32 353.73c-227.24,107.19 -454.49,235.82 -687.34,348.36 -1372.11,667.32 -3072.65,1427.6 -4660.83,1523.59l0 1.19c-387.24,16.08 -740.81,16.08 -1119.63,-53.59 -345.16,-61.64 -648.22,-142.03 -1018.62,-171.51 -777.3,-61.63 -1419.9,58.96 -2141.07,203.66 -1108.42,219.74 -1967.09,270.66 -3022.18,-222.42l-796.94 -380.52z"/>
  </g>
 </g>
</svg>
