<?xml version="1.0" encoding="UTF-8"?>
<!DOCTYPE svg PUBLIC "-//W3C//DTD SVG 1.1//EN" "http://www.w3.org/Graphics/SVG/1.1/DTD/svg11.dtd">
<!-- Creator: CorelDRAW 2019 (64-Bit Evaluation Version) -->
<svg xmlns="http://www.w3.org/2000/svg" xml:space="preserve" width="250mm" height="211.718mm" version="1.1" style="shape-rendering:geometricPrecision; text-rendering:geometricPrecision; image-rendering:optimizeQuality; fill-rule:evenodd; clip-rule:evenodd"
viewBox="0 0 25000 21171.8"
 xmlns:xlink="http://www.w3.org/1999/xlink">
 <defs>
  <style type="text/css">
   <![CDATA[
    .fil1 {fill:#D4E6FA;fill-rule:nonzero;fill-opacity:0.419608}
    .fil0 {fill:url(#id0);fill-rule:nonzero}
   ]]>
  </style>
  <linearGradient id="id0" gradientUnits="userSpaceOnUse" x1="14757.18" y1="557.34" x2="8164.75" y2="20604.04">
   <stop offset="0" style="stop-opacity:1; stop-color:#5CD1FF"/>
   <stop offset="1" style="stop-opacity:1; stop-color:#0B8DEA"/>
  </linearGradient>
 </defs>
 <g id="Layer_x0020_1">
  <metadata id="CorelCorpID_0Corel-Layer"/>
  <g id="_2893981556208">
   <path class="fil0" d="M-5.27 20946.1l32.1 -20938.98 20673.84 0 0 -0.01 2188.61 0c23.56,79.95 34.45,162.06 34.45,245.61 0,2003.93 -7305.21,2676.66 -7305.21,7204.73 0,2716.71 3277.62,3929.35 2894,6807.72 -1156.51,8677.42 -14553.91,6702.89 -18517.79,6680.93zm16955.42 -6786.76c-1.08,59.52 -5.26,116.98 -8.19,175.28 5.02,-58.83 8.19,-117.35 8.19,-175.28z"/>
   <path class="fil1" d="M16701.67 8974.83c-3154.51,-3819.47 6721.58,-6536.98 6378.69,-8702.33 -14.29,-90.28 -40.12,-179 -79.25,-265.39l-918.09 0c25.45,86.39 37.23,175.11 37.23,265.39 0,2165.35 -7893.68,2892.28 -7893.68,7785.1 0,2935.56 2280.45,5116.5 2280.45,7745.11 0,2337.76 -6111.85,5080.2 -9807.06,5376.24 2897.55,-102.88 4494.45,305.21 7916.59,-837.82 7260.2,-2424.98 4794.14,-8086.2 2085.12,-11366.3z"/>
  </g>
 </g>
</svg>
