<svg xmlns="http://www.w3.org/2000/svg" xmlns:xlink="http://www.w3.org/1999/xlink" width="1327" height="1240" viewBox="0 0 1327 1240">
  <defs>
    <clipPath id="clip-path">
      <rect width="260" height="198" fill="none"/>
    </clipPath>
    <clipPath id="clip-path-2">
      <rect width="200" height="168" fill="none"/>
    </clipPath>
  </defs>
  <g id="triangels" transform="translate(136 44)">
    <g id="circles" transform="translate(-812 29)">
      <g id="Ellipse_6" data-name="Ellipse 6" transform="translate(1074 446)" fill="#fff" stroke="rgba(0,183,255,0.1)" stroke-width="3.5">
        <circle cx="245.5" cy="245.5" r="245.5" stroke="none"/>
        <circle cx="245.5" cy="245.5" r="243.75" fill="none"/>
      </g>
      <g id="Ellipse_7" data-name="Ellipse 7" transform="translate(1092 464)" fill="#fff" stroke="rgba(0,183,255,0.1)" stroke-width="3.5">
        <circle cx="227.5" cy="227.5" r="227.5" stroke="none"/>
        <circle cx="227.5" cy="227.5" r="225.75" fill="none"/>
      </g>
      <g id="Ellipse_8" data-name="Ellipse 8" transform="translate(1111 483)" fill="#fff" stroke="rgba(0,183,255,0.1)" stroke-width="3.5">
        <circle cx="208.5" cy="208.5" r="208.5" stroke="none"/>
        <circle cx="208.5" cy="208.5" r="206.75" fill="none"/>
      </g>
      <g id="Ellipse_9" data-name="Ellipse 9" transform="translate(1129 501)" fill="#fff" stroke="rgba(0,183,255,0.1)" stroke-width="3.5">
        <circle cx="190.5" cy="190.5" r="190.5" stroke="none"/>
        <circle cx="190.5" cy="190.5" r="188.75" fill="none"/>
      </g>
      <g id="Ellipse_10" data-name="Ellipse 10" transform="translate(1151 523)" fill="#fff" stroke="rgba(0,183,255,0.1)" stroke-width="3.5">
        <circle cx="168.5" cy="168.5" r="168.5" stroke="none"/>
        <circle cx="168.5" cy="168.5" r="166.75" fill="none"/>
      </g>
      <g id="Ellipse_11" data-name="Ellipse 11" transform="translate(1173 545)" fill="#fff" stroke="rgba(0,183,255,0.1)" stroke-width="3.5">
        <circle cx="146.5" cy="146.5" r="146.5" stroke="none"/>
        <circle cx="146.5" cy="146.5" r="144.75" fill="none"/>
      </g>
      <g id="Ellipse_12" data-name="Ellipse 12" transform="translate(1192 568)" fill="#fff" stroke="rgba(0,183,255,0.1)" stroke-width="3.5">
        <circle cx="125.5" cy="125.5" r="125.5" stroke="none"/>
        <circle cx="125.5" cy="125.5" r="123.75" fill="none"/>
      </g>
      <g id="Ellipse_13" data-name="Ellipse 13" transform="translate(1213 585)" fill="#fff" stroke="rgba(0,183,255,0.1)" stroke-width="3.5">
        <circle cx="106.5" cy="106.5" r="106.5" stroke="none"/>
        <circle cx="106.5" cy="106.5" r="104.75" fill="none"/>
      </g>
      <g id="Ellipse_14" data-name="Ellipse 14" transform="translate(1232 604)" fill="#fff" stroke="rgba(0,183,255,0.1)" stroke-width="3.5">
        <circle cx="87.5" cy="87.5" r="87.5" stroke="none"/>
        <circle cx="87.5" cy="87.5" r="85.75" fill="none"/>
      </g>
      <g id="Ellipse_15" data-name="Ellipse 15" transform="translate(1249 621)" fill="#fff" stroke="rgba(0,183,255,0.1)" stroke-width="3.5">
        <circle cx="70.5" cy="70.5" r="70.5" stroke="none"/>
        <circle cx="70.5" cy="70.5" r="68.75" fill="none"/>
      </g>
      <g id="Ellipse_16" data-name="Ellipse 16" transform="translate(1268 640)" fill="#fff" stroke="rgba(0,183,255,0.1)" stroke-width="3.5">
        <circle cx="51.5" cy="51.5" r="51.5" stroke="none"/>
        <circle cx="51.5" cy="51.5" r="49.75" fill="none"/>
      </g>
    </g>
    <g id="circles-2" data-name="circles" transform="translate(-227.735 -489.735)">
      <g id="Ellipse_6-2" data-name="Ellipse 6" transform="translate(1073.735 445.735)" fill="#fff" stroke="rgba(0,183,255,0.1)" stroke-width="3.5">
        <circle cx="172.5" cy="172.5" r="172.5" stroke="none"/>
        <circle cx="172.5" cy="172.5" r="170.75" fill="none"/>
      </g>
      <g id="Ellipse_7-2" data-name="Ellipse 7" transform="translate(1086.735 458.735)" fill="#fff" stroke="rgba(0,183,255,0.1)" stroke-width="3.5">
        <circle cx="159.5" cy="159.5" r="159.5" stroke="none"/>
        <circle cx="159.5" cy="159.5" r="157.75" fill="none"/>
      </g>
      <g id="Ellipse_8-2" data-name="Ellipse 8" transform="translate(1100.735 472.735)" fill="#fff" stroke="rgba(0,183,255,0.1)" stroke-width="3.5">
        <circle cx="145.5" cy="145.5" r="145.5" stroke="none"/>
        <circle cx="145.5" cy="145.5" r="143.75" fill="none"/>
      </g>
      <g id="Ellipse_9-2" data-name="Ellipse 9" transform="translate(1111.735 483.735)" fill="#fff" stroke="rgba(0,183,255,0.1)" stroke-width="3.5">
        <circle cx="134.5" cy="134.5" r="134.5" stroke="none"/>
        <circle cx="134.5" cy="134.5" r="132.75" fill="none"/>
      </g>
      <g id="Ellipse_10-2" data-name="Ellipse 10" transform="translate(1127.735 499.735)" fill="#fff" stroke="rgba(0,183,255,0.1)" stroke-width="3.5">
        <circle cx="118.5" cy="118.5" r="118.5" stroke="none"/>
        <circle cx="118.5" cy="118.5" r="116.75" fill="none"/>
      </g>
      <g id="Ellipse_11-2" data-name="Ellipse 11" transform="translate(1142.735 514.735)" fill="#fff" stroke="rgba(0,183,255,0.1)" stroke-width="3.5">
        <circle cx="103.5" cy="103.5" r="103.5" stroke="none"/>
        <circle cx="103.5" cy="103.5" r="101.75" fill="none"/>
      </g>
      <g id="Ellipse_12-2" data-name="Ellipse 12" transform="translate(1156.735 531.735)" fill="#fff" stroke="rgba(0,183,255,0.1)" stroke-width="3.5">
        <circle cx="88" cy="88" r="88" stroke="none"/>
        <circle cx="88" cy="88" r="86.25" fill="none"/>
      </g>
      <g id="Ellipse_13-2" data-name="Ellipse 13" transform="translate(1171.735 543.735)" fill="#fff" stroke="rgba(0,183,255,0.1)" stroke-width="3.5">
        <circle cx="74.5" cy="74.5" r="74.5" stroke="none"/>
        <circle cx="74.5" cy="74.5" r="72.75" fill="none"/>
      </g>
      <g id="Ellipse_14-2" data-name="Ellipse 14" transform="translate(1184.735 556.735)" fill="#fff" stroke="rgba(0,183,255,0.1)" stroke-width="3.5">
        <circle cx="62" cy="62" r="62" stroke="none"/>
        <circle cx="62" cy="62" r="60.25" fill="none"/>
      </g>
      <g id="Ellipse_15-2" data-name="Ellipse 15" transform="translate(1196.735 568.735)" fill="#fff" stroke="rgba(0,183,255,0.1)" stroke-width="3.5">
        <circle cx="49.5" cy="49.5" r="49.5" stroke="none"/>
        <circle cx="49.5" cy="49.5" r="47.75" fill="none"/>
      </g>
      <g id="Ellipse_16-2" data-name="Ellipse 16" transform="translate(1210.735 582.735)" fill="#fff" stroke="rgba(0,183,255,0.1)" stroke-width="3.5">
        <circle cx="35.5" cy="35.5" r="35.5" stroke="none"/>
        <circle cx="35.5" cy="35.5" r="33.75" fill="none"/>
      </g>
    </g>
    <g id="Rectangle">
      <g id="Rectangle-2" data-name="Rectangle" transform="translate(923.452 630.952) rotate(45)" fill="#fff" stroke="rgba(15,107,211,0.2)" stroke-width="5">
        <rect width="63" height="63" stroke="none"/>
        <rect x="2.5" y="2.5" width="58" height="58" fill="none"/>
      </g>
      <g id="Rectangle-3" data-name="Rectangle" transform="translate(0 799.438) rotate(45)" fill="#fff" stroke="rgba(15,107,211,0.2)" stroke-width="5">
        <rect width="51" height="51" stroke="none"/>
        <rect x="2.5" y="2.5" width="46" height="46" fill="none"/>
      </g>
    </g>
    <g id="Dots">
      <g id="Dots-2" data-name="Dots" transform="translate(700 342)" clip-path="url(#clip-path)">
        <g transform="translate(-1109 -350)">
          <rect id="Rectangle_466" data-name="Rectangle 466" width="10" height="10" rx="5" transform="translate(1109 350)" fill="rgba(15,107,211,0.5)"/>
        </g>
        <g transform="translate(-1069 -350)">
          <rect id="Rectangle_466-2" data-name="Rectangle 466" width="10" height="10" rx="5" transform="translate(1109 350)" fill="rgba(15,107,211,0.5)"/>
        </g>
        <g transform="translate(-1029 -350)">
          <rect id="Rectangle_466-3" data-name="Rectangle 466" width="10" height="10" rx="5" transform="translate(1109 350)" fill="rgba(15,107,211,0.5)"/>
        </g>
        <g transform="translate(-989 -350)">
          <rect id="Rectangle_466-4" data-name="Rectangle 466" width="10" height="10" rx="5" transform="translate(1109 350)" fill="rgba(15,107,211,0.5)"/>
        </g>
        <g transform="translate(-949 -350)">
          <rect id="Rectangle_466-5" data-name="Rectangle 466" width="10" height="10" rx="5" transform="translate(1109 350)" fill="rgba(15,107,211,0.5)"/>
        </g>
        <g transform="translate(-909 -350)">
          <rect id="Rectangle_466-6" data-name="Rectangle 466" width="10" height="10" rx="5" transform="translate(1109 350)" fill="rgba(15,107,211,0.5)"/>
        </g>
        <g transform="translate(-869 -350)">
          <rect id="Rectangle_466-7" data-name="Rectangle 466" width="10" height="10" rx="5" transform="translate(1109 350)" fill="rgba(15,107,211,0.5)"/>
        </g>
        <g transform="translate(-1109 -314)">
          <rect id="Rectangle_466-8" data-name="Rectangle 466" width="10" height="10" rx="5" transform="translate(1109 350)" fill="rgba(15,107,211,0.5)"/>
        </g>
        <g transform="translate(-1069 -314)">
          <rect id="Rectangle_466-9" data-name="Rectangle 466" width="10" height="10" rx="5" transform="translate(1109 350)" fill="rgba(15,107,211,0.5)"/>
        </g>
        <g transform="translate(-1029 -314)">
          <rect id="Rectangle_466-10" data-name="Rectangle 466" width="10" height="10" rx="5" transform="translate(1109 350)" fill="rgba(15,107,211,0.5)"/>
        </g>
        <g transform="translate(-989 -314)">
          <rect id="Rectangle_466-11" data-name="Rectangle 466" width="10" height="10" rx="5" transform="translate(1109 350)" fill="rgba(15,107,211,0.5)"/>
        </g>
        <g transform="translate(-949 -314)">
          <rect id="Rectangle_466-12" data-name="Rectangle 466" width="10" height="10" rx="5" transform="translate(1109 350)" fill="rgba(15,107,211,0.5)"/>
        </g>
        <g transform="translate(-909 -314)">
          <rect id="Rectangle_466-13" data-name="Rectangle 466" width="10" height="10" rx="5" transform="translate(1109 350)" fill="rgba(15,107,211,0.5)"/>
        </g>
        <g transform="translate(-869 -314)">
          <rect id="Rectangle_466-14" data-name="Rectangle 466" width="10" height="10" rx="5" transform="translate(1109 350)" fill="rgba(15,107,211,0.5)"/>
        </g>
        <g transform="translate(-1109 -278)">
          <rect id="Rectangle_466-15" data-name="Rectangle 466" width="10" height="10" rx="5" transform="translate(1109 350)" fill="rgba(15,107,211,0.5)"/>
        </g>
        <g transform="translate(-1069 -278)">
          <rect id="Rectangle_466-16" data-name="Rectangle 466" width="10" height="10" rx="5" transform="translate(1109 350)" fill="rgba(15,107,211,0.5)"/>
        </g>
        <g transform="translate(-1029 -278)">
          <rect id="Rectangle_466-17" data-name="Rectangle 466" width="10" height="10" rx="5" transform="translate(1109 350)" fill="rgba(15,107,211,0.5)"/>
        </g>
        <g transform="translate(-989 -278)">
          <rect id="Rectangle_466-18" data-name="Rectangle 466" width="10" height="10" rx="5" transform="translate(1109 350)" fill="rgba(15,107,211,0.5)"/>
        </g>
        <g transform="translate(-949 -278)">
          <rect id="Rectangle_466-19" data-name="Rectangle 466" width="10" height="10" rx="5" transform="translate(1109 350)" fill="rgba(15,107,211,0.5)"/>
        </g>
        <g transform="translate(-909 -278)">
          <rect id="Rectangle_466-20" data-name="Rectangle 466" width="10" height="10" rx="5" transform="translate(1109 350)" fill="rgba(15,107,211,0.5)"/>
        </g>
        <g transform="translate(-869 -278)">
          <rect id="Rectangle_466-21" data-name="Rectangle 466" width="10" height="10" rx="5" transform="translate(1109 350)" fill="rgba(15,107,211,0.5)"/>
        </g>
        <g transform="translate(-1109 -242)">
          <rect id="Rectangle_466-22" data-name="Rectangle 466" width="10" height="10" rx="5" transform="translate(1109 350)" fill="rgba(15,107,211,0.5)"/>
        </g>
        <g transform="translate(-1069 -242)">
          <rect id="Rectangle_466-23" data-name="Rectangle 466" width="10" height="10" rx="5" transform="translate(1109 350)" fill="rgba(15,107,211,0.5)"/>
        </g>
        <g transform="translate(-1029 -242)">
          <rect id="Rectangle_466-24" data-name="Rectangle 466" width="10" height="10" rx="5" transform="translate(1109 350)" fill="rgba(15,107,211,0.5)"/>
        </g>
        <g transform="translate(-989 -242)">
          <rect id="Rectangle_466-25" data-name="Rectangle 466" width="10" height="10" rx="5" transform="translate(1109 350)" fill="rgba(15,107,211,0.5)"/>
        </g>
        <g transform="translate(-949 -242)">
          <rect id="Rectangle_466-26" data-name="Rectangle 466" width="10" height="10" rx="5" transform="translate(1109 350)" fill="rgba(15,107,211,0.5)"/>
        </g>
        <g transform="translate(-909 -242)">
          <rect id="Rectangle_466-27" data-name="Rectangle 466" width="10" height="10" rx="5" transform="translate(1109 350)" fill="rgba(15,107,211,0.5)"/>
        </g>
        <g transform="translate(-869 -242)">
          <rect id="Rectangle_466-28" data-name="Rectangle 466" width="10" height="10" rx="5" transform="translate(1109 350)" fill="rgba(15,107,211,0.5)"/>
        </g>
        <g transform="translate(-1109 -206)">
          <rect id="Rectangle_466-29" data-name="Rectangle 466" width="10" height="10" rx="5" transform="translate(1109 350)" fill="rgba(15,107,211,0.5)"/>
        </g>
        <g transform="translate(-1069 -206)">
          <rect id="Rectangle_466-30" data-name="Rectangle 466" width="10" height="10" rx="5" transform="translate(1109 350)" fill="rgba(15,107,211,0.5)"/>
        </g>
        <g transform="translate(-1029 -206)">
          <rect id="Rectangle_466-31" data-name="Rectangle 466" width="10" height="10" rx="5" transform="translate(1109 350)" fill="rgba(15,107,211,0.5)"/>
        </g>
        <g transform="translate(-989 -206)">
          <rect id="Rectangle_466-32" data-name="Rectangle 466" width="10" height="10" rx="5" transform="translate(1109 350)" fill="rgba(15,107,211,0.5)"/>
        </g>
        <g transform="translate(-949 -206)">
          <rect id="Rectangle_466-33" data-name="Rectangle 466" width="10" height="10" rx="5" transform="translate(1109 350)" fill="rgba(15,107,211,0.5)"/>
        </g>
        <g transform="translate(-909 -206)">
          <rect id="Rectangle_466-34" data-name="Rectangle 466" width="10" height="10" rx="5" transform="translate(1109 350)" fill="rgba(15,107,211,0.5)"/>
        </g>
        <g transform="translate(-869 -206)">
          <rect id="Rectangle_466-35" data-name="Rectangle 466" width="10" height="10" rx="5" transform="translate(1109 350)" fill="rgba(15,107,211,0.5)"/>
        </g>
        <g transform="translate(-1109 -170)">
          <rect id="Rectangle_466-36" data-name="Rectangle 466" width="10" height="10" rx="5" transform="translate(1109 350)" fill="rgba(15,107,211,0.5)"/>
        </g>
        <g transform="translate(-1069 -170)">
          <rect id="Rectangle_466-37" data-name="Rectangle 466" width="10" height="10" rx="5" transform="translate(1109 350)" fill="rgba(15,107,211,0.5)"/>
        </g>
        <g transform="translate(-1029 -170)">
          <rect id="Rectangle_466-38" data-name="Rectangle 466" width="10" height="10" rx="5" transform="translate(1109 350)" fill="rgba(15,107,211,0.5)"/>
        </g>
        <g transform="translate(-989 -170)">
          <rect id="Rectangle_466-39" data-name="Rectangle 466" width="10" height="10" rx="5" transform="translate(1109 350)" fill="rgba(15,107,211,0.5)"/>
        </g>
        <g transform="translate(-949 -170)">
          <rect id="Rectangle_466-40" data-name="Rectangle 466" width="10" height="10" rx="5" transform="translate(1109 350)" fill="rgba(15,107,211,0.5)"/>
        </g>
        <g transform="translate(-909 -170)">
          <rect id="Rectangle_466-41" data-name="Rectangle 466" width="10" height="10" rx="5" transform="translate(1109 350)" fill="rgba(15,107,211,0.5)"/>
        </g>
        <g transform="translate(-869 -170)">
          <rect id="Rectangle_466-42" data-name="Rectangle 466" width="10" height="10" rx="5" transform="translate(1109 350)" fill="rgba(15,107,211,0.5)"/>
        </g>
      </g>
      <g id="Dots-3" data-name="Dots" transform="translate(-136 1028)" clip-path="url(#clip-path-2)">
        <g transform="translate(-1109 -350)">
          <rect id="Rectangle_466-43" data-name="Rectangle 466" width="10" height="10" rx="5" transform="translate(1109 350)" fill="rgba(15,107,211,0.5)"/>
        </g>
        <g transform="translate(-1079 -350)">
          <rect id="Rectangle_466-44" data-name="Rectangle 466" width="10" height="10" rx="5" transform="translate(1109 350)" fill="rgba(15,107,211,0.5)"/>
        </g>
        <g transform="translate(-1049 -350)">
          <rect id="Rectangle_466-45" data-name="Rectangle 466" width="10" height="10" rx="5" transform="translate(1109 350)" fill="rgba(15,107,211,0.5)"/>
        </g>
        <g transform="translate(-1019 -350)">
          <rect id="Rectangle_466-46" data-name="Rectangle 466" width="10" height="10" rx="5" transform="translate(1109 350)" fill="rgba(15,107,211,0.5)"/>
        </g>
        <g transform="translate(-989 -350)">
          <rect id="Rectangle_466-47" data-name="Rectangle 466" width="10" height="10" rx="5" transform="translate(1109 350)" fill="rgba(15,107,211,0.5)"/>
        </g>
        <g transform="translate(-959 -350)">
          <rect id="Rectangle_466-48" data-name="Rectangle 466" width="10" height="10" rx="5" transform="translate(1109 350)" fill="rgba(15,107,211,0.5)"/>
        </g>
        <g transform="translate(-929 -350)">
          <rect id="Rectangle_466-49" data-name="Rectangle 466" width="10" height="10" rx="5" transform="translate(1109 350)" fill="rgba(15,107,211,0.5)"/>
        </g>
        <g transform="translate(-1109 -320)">
          <rect id="Rectangle_466-50" data-name="Rectangle 466" width="10" height="10" rx="5" transform="translate(1109 350)" fill="rgba(15,107,211,0.5)"/>
        </g>
        <g transform="translate(-1079 -320)">
          <rect id="Rectangle_466-51" data-name="Rectangle 466" width="10" height="10" rx="5" transform="translate(1109 350)" fill="rgba(15,107,211,0.5)"/>
        </g>
        <g transform="translate(-1049 -320)">
          <rect id="Rectangle_466-52" data-name="Rectangle 466" width="10" height="10" rx="5" transform="translate(1109 350)" fill="rgba(15,107,211,0.5)"/>
        </g>
        <g transform="translate(-1019 -320)">
          <rect id="Rectangle_466-53" data-name="Rectangle 466" width="10" height="10" rx="5" transform="translate(1109 350)" fill="rgba(15,107,211,0.5)"/>
        </g>
        <g transform="translate(-989 -320)">
          <rect id="Rectangle_466-54" data-name="Rectangle 466" width="10" height="10" rx="5" transform="translate(1109 350)" fill="rgba(15,107,211,0.5)"/>
        </g>
        <g transform="translate(-959 -320)">
          <rect id="Rectangle_466-55" data-name="Rectangle 466" width="10" height="10" rx="5" transform="translate(1109 350)" fill="rgba(15,107,211,0.5)"/>
        </g>
        <g transform="translate(-929 -320)">
          <rect id="Rectangle_466-56" data-name="Rectangle 466" width="10" height="10" rx="5" transform="translate(1109 350)" fill="rgba(15,107,211,0.5)"/>
        </g>
        <g transform="translate(-1109 -290)">
          <rect id="Rectangle_466-57" data-name="Rectangle 466" width="10" height="10" rx="5" transform="translate(1109 350)" fill="rgba(15,107,211,0.5)"/>
        </g>
        <g transform="translate(-1079 -290)">
          <rect id="Rectangle_466-58" data-name="Rectangle 466" width="10" height="10" rx="5" transform="translate(1109 350)" fill="rgba(15,107,211,0.5)"/>
        </g>
        <g transform="translate(-1049 -290)">
          <rect id="Rectangle_466-59" data-name="Rectangle 466" width="10" height="10" rx="5" transform="translate(1109 350)" fill="rgba(15,107,211,0.5)"/>
        </g>
        <g transform="translate(-1019 -290)">
          <rect id="Rectangle_466-60" data-name="Rectangle 466" width="10" height="10" rx="5" transform="translate(1109 350)" fill="rgba(15,107,211,0.5)"/>
        </g>
        <g transform="translate(-989 -290)">
          <rect id="Rectangle_466-61" data-name="Rectangle 466" width="10" height="10" rx="5" transform="translate(1109 350)" fill="rgba(15,107,211,0.5)"/>
        </g>
        <g transform="translate(-959 -290)">
          <rect id="Rectangle_466-62" data-name="Rectangle 466" width="10" height="10" rx="5" transform="translate(1109 350)" fill="rgba(15,107,211,0.5)"/>
        </g>
        <g transform="translate(-929 -290)">
          <rect id="Rectangle_466-63" data-name="Rectangle 466" width="10" height="10" rx="5" transform="translate(1109 350)" fill="rgba(15,107,211,0.5)"/>
        </g>
        <g transform="translate(-1109 -260)">
          <rect id="Rectangle_466-64" data-name="Rectangle 466" width="10" height="10" rx="5" transform="translate(1109 350)" fill="rgba(15,107,211,0.5)"/>
        </g>
        <g transform="translate(-1079 -260)">
          <rect id="Rectangle_466-65" data-name="Rectangle 466" width="10" height="10" rx="5" transform="translate(1109 350)" fill="rgba(15,107,211,0.5)"/>
        </g>
        <g transform="translate(-1049 -260)">
          <rect id="Rectangle_466-66" data-name="Rectangle 466" width="10" height="10" rx="5" transform="translate(1109 350)" fill="rgba(15,107,211,0.5)"/>
        </g>
        <g transform="translate(-1019 -260)">
          <rect id="Rectangle_466-67" data-name="Rectangle 466" width="10" height="10" rx="5" transform="translate(1109 350)" fill="rgba(15,107,211,0.5)"/>
        </g>
        <g transform="translate(-989 -260)">
          <rect id="Rectangle_466-68" data-name="Rectangle 466" width="10" height="10" rx="5" transform="translate(1109 350)" fill="rgba(15,107,211,0.5)"/>
        </g>
        <g transform="translate(-959 -260)">
          <rect id="Rectangle_466-69" data-name="Rectangle 466" width="10" height="10" rx="5" transform="translate(1109 350)" fill="rgba(15,107,211,0.5)"/>
        </g>
        <g transform="translate(-929 -260)">
          <rect id="Rectangle_466-70" data-name="Rectangle 466" width="10" height="10" rx="5" transform="translate(1109 350)" fill="rgba(15,107,211,0.5)"/>
        </g>
        <g transform="translate(-1109 -230)">
          <rect id="Rectangle_466-71" data-name="Rectangle 466" width="10" height="10" rx="5" transform="translate(1109 350)" fill="rgba(15,107,211,0.5)"/>
        </g>
        <g transform="translate(-1079 -230)">
          <rect id="Rectangle_466-72" data-name="Rectangle 466" width="10" height="10" rx="5" transform="translate(1109 350)" fill="rgba(15,107,211,0.5)"/>
        </g>
        <g transform="translate(-1049 -230)">
          <rect id="Rectangle_466-73" data-name="Rectangle 466" width="10" height="10" rx="5" transform="translate(1109 350)" fill="rgba(15,107,211,0.5)"/>
        </g>
        <g transform="translate(-1019 -230)">
          <rect id="Rectangle_466-74" data-name="Rectangle 466" width="10" height="10" rx="5" transform="translate(1109 350)" fill="rgba(15,107,211,0.5)"/>
        </g>
        <g transform="translate(-989 -230)">
          <rect id="Rectangle_466-75" data-name="Rectangle 466" width="10" height="10" rx="5" transform="translate(1109 350)" fill="rgba(15,107,211,0.5)"/>
        </g>
        <g transform="translate(-959 -230)">
          <rect id="Rectangle_466-76" data-name="Rectangle 466" width="10" height="10" rx="5" transform="translate(1109 350)" fill="rgba(15,107,211,0.5)"/>
        </g>
        <g transform="translate(-929 -230)">
          <rect id="Rectangle_466-77" data-name="Rectangle 466" width="10" height="10" rx="5" transform="translate(1109 350)" fill="rgba(15,107,211,0.5)"/>
        </g>
        <g transform="translate(-1109 -200)">
          <rect id="Rectangle_466-78" data-name="Rectangle 466" width="10" height="10" rx="5" transform="translate(1109 350)" fill="rgba(15,107,211,0.5)"/>
        </g>
        <g transform="translate(-1079 -200)">
          <rect id="Rectangle_466-79" data-name="Rectangle 466" width="10" height="10" rx="5" transform="translate(1109 350)" fill="rgba(15,107,211,0.5)"/>
        </g>
        <g transform="translate(-1049 -200)">
          <rect id="Rectangle_466-80" data-name="Rectangle 466" width="10" height="10" rx="5" transform="translate(1109 350)" fill="rgba(15,107,211,0.5)"/>
        </g>
        <g transform="translate(-1019 -200)">
          <rect id="Rectangle_466-81" data-name="Rectangle 466" width="10" height="10" rx="5" transform="translate(1109 350)" fill="rgba(15,107,211,0.5)"/>
        </g>
        <g transform="translate(-989 -200)">
          <rect id="Rectangle_466-82" data-name="Rectangle 466" width="10" height="10" rx="5" transform="translate(1109 350)" fill="rgba(15,107,211,0.5)"/>
        </g>
        <g transform="translate(-959 -200)">
          <rect id="Rectangle_466-83" data-name="Rectangle 466" width="10" height="10" rx="5" transform="translate(1109 350)" fill="rgba(15,107,211,0.5)"/>
        </g>
        <g transform="translate(-929 -200)">
          <rect id="Rectangle_466-84" data-name="Rectangle 466" width="10" height="10" rx="5" transform="translate(1109 350)" fill="rgba(15,107,211,0.5)"/>
        </g>
      </g>
    </g>
  </g>
</svg>
