<svg xmlns="http://www.w3.org/2000/svg" width="40" height="40" viewBox="0 0 40 40">
  <path id="ic_g_translate_24px" d="M38,8H19.76L18,2H6A4.012,4.012,0,0,0,2,6V32a4.012,4.012,0,0,0,4,4H20l2,6H38a4.012,4.012,0,0,0,4-4V12A4.012,4.012,0,0,0,38,8ZM12.34,27.18a8.18,8.18,0,0,1,0-16.36,7.9,7.9,0,0,1,5.48,2.14l.14.12L15.5,15.44l-.12-.1a4.344,4.344,0,0,0-3.04-1.18,4.841,4.841,0,0,0,0,9.68,4.1,4.1,0,0,0,4.24-2.92H12.16v-3.1h7.9l.02.14a6.279,6.279,0,0,1,.1,1.22c0,4.7-3.22,8-7.84,8ZM24.4,23.76a19.964,19.964,0,0,0,2.38,3.4L25.7,28.22l-1.3-4.46Zm1.54-1.52H23.96l-.62-2.08h7.98a15.362,15.362,0,0,1-3.12,5.48,18.363,18.363,0,0,1-2.26-3.4ZM40,38a2.006,2.006,0,0,1-2,2H24l4-4-1.62-5.54,1.84-1.84L33.58,34l1.46-1.46-5.42-5.36a17.462,17.462,0,0,0,3.84-7.02H36V18.08H28.72V16H26.64v2.08H22.72L20.36,10H38a2.006,2.006,0,0,1,2,2Z" transform="translate(-2 -2)" fill="#00b7ff"/>
</svg>
