<?xml version="1.0" encoding="UTF-8"?>
<!DOCTYPE svg PUBLIC "-//W3C//DTD SVG 1.1//EN" "http://www.w3.org/Graphics/SVG/1.1/DTD/svg11.dtd">
<!-- Creator: CorelDRAW 2019 (64-Bit Evaluation Version) -->
<svg xmlns="http://www.w3.org/2000/svg" xml:space="preserve" width="22mm" height="22mm" version="1.1" style="shape-rendering:geometricPrecision; text-rendering:geometricPrecision; image-rendering:optimizeQuality; fill-rule:evenodd; clip-rule:evenodd"
viewBox="0 0 2200 2200"
 xmlns:xlink="http://www.w3.org/1999/xlink">
 <defs>
  <style type="text/css">
   <![CDATA[
    .fil4 {fill:#1667B7}
    .fil1 {fill:#1976D2}
    .fil3 {fill:#1D83D4}
    .fil0 {fill:#2196F3}
    .fil7 {fill:#DEA806}
    .fil5 {fill:#DEDEDE}
    .fil6 {fill:#FFC107}
    .fil2 {fill:white}
   ]]>
  </style>
 </defs>
 <g id="Layer_x0020_1">
  <metadata id="CorelCorpID_0Corel-Layer"/>
  <g id="_1531157012368">
   <path class="fil0" d="M1286.46 339.99l-977.22 0c-129.17,0 -233.69,104.52 -233.69,233.68l0 1062.2c0,129.16 104.53,233.68 233.69,233.68l627.12 0 18.69 -104.52c8.59,-47.59 30.59,-90.07 64.67,-124.91l110.47 -110.47 -735.98 0c-34.84,0 -63.73,-28.89 -63.73,-63.73 0,-34.84 28.89,-63.73 63.73,-63.73l807.27 0c15.3,0 29.74,5.94 40.79,15.29l277.87 -277.02 0 -566.79c0,-129.16 -104.52,-233.68 -233.68,-233.68l0 0zm-84.98 913.49l-807.27 0c-34.84,0 -63.73,-28.89 -63.73,-63.73 0,-34.84 28.89,-63.73 63.73,-63.73l807.27 -0.01c34.84,0 63.73,28.9 63.73,63.74 0,34.84 -28.89,63.73 -63.73,63.73l0 0zm0 -276.17l-807.27 0c-34.84,0 -63.73,-28.9 -63.73,-63.73 0,-34.84 28.89,-63.74 63.73,-63.74l807.27 0c34.84,0 63.73,28.9 63.73,63.74 0,34.83 -28.89,63.73 -63.73,63.73z"/>
   <path class="fil1" d="M1116.51 255.01l-93.48 0c-28.04,-97.72 -118.11,-169.95 -225.18,-169.95 -107.07,0 -197.15,72.23 -225.19,169.95l-93.47 0c-34.84,0 -63.73,28.9 -63.73,63.74l0 169.95c0,81.57 67.13,148.7 148.71,148.7l467.36 0c81.58,0 148.71,-67.13 148.71,-148.7l0 -169.95c0,-34.84 -28.89,-63.74 -63.73,-63.74l0 0z"/>
   <path class="fil2" d="M1265.21 913.58c0,34.83 -28.89,63.73 -63.73,63.73l-807.27 0c-34.84,0 -63.73,-28.9 -63.73,-63.73 0,-34.84 28.89,-63.74 63.73,-63.74l807.27 0c34.84,0 63.73,28.9 63.73,63.74z"/>
   <path class="fil2" d="M1265.21 1189.75c0,34.84 -28.89,63.73 -63.73,63.73l-807.27 0c-34.84,0 -63.73,-28.89 -63.73,-63.73 0,-34.84 28.89,-63.73 63.73,-63.73l807.27 -0.01c34.84,0 63.73,28.9 63.73,63.74z"/>
   <path class="fil2" d="M1242.27 1417.48l-112.17 112.17 -735.89 0c-34.84,0 -63.73,-28.89 -63.73,-63.73 0,-34.84 28.89,-63.73 63.73,-63.73l807.27 0c15.3,0 29.74,5.94 40.79,15.29z"/>
   <path class="fil3" d="M415.46 339.99l-106.22 0c-129.17,0 -233.69,104.52 -233.69,233.68l0 1062.2c0,129.16 104.53,233.68 233.69,233.68l488.61 0 0 -339.9 -403.64 0c-34.84,0 -63.73,-28.89 -63.73,-63.73 0,-34.84 28.89,-63.73 63.73,-63.73l403.64 0 0 -148.71 -403.64 0c-34.84,0 -63.73,-28.89 -63.73,-63.73 0,-34.84 28.89,-63.73 63.73,-63.73l403.64 -0.01 0 -148.7 -403.64 0c-34.84,0 -63.73,-28.9 -63.73,-63.73 0,-34.84 28.89,-63.74 63.73,-63.74l403.64 0 0 -212.44 -233.69 0c-81.57,0 -148.7,-67.13 -148.7,-148.7l0 -148.71z"/>
   <path class="fil4" d="M797.85 85.06c-107.07,0 -197.15,72.23 -225.19,169.95l-93.47 0c-34.84,0 -63.73,28.9 -63.73,63.74l0 21.24 0 148.71c0,81.57 67.13,148.7 148.71,148.7l233.68 0 0 -552.34z"/>
   <path class="fil5" d="M797.85 849.84l-403.64 0c-34.84,0 -63.73,28.9 -63.73,63.74 0,34.83 28.89,63.73 63.73,63.73l403.64 0 0 -127.47z"/>
   <path class="fil5" d="M797.85 1126.01l-403.64 0c-34.84,0 -63.73,28.9 -63.73,63.74 0,34.84 28.89,63.73 63.73,63.73l403.64 0 0 -127.47z"/>
   <path class="fil5" d="M797.85 1402.19l-403.64 0c-34.84,0 -63.73,28.89 -63.73,63.73 0,34.84 28.89,63.73 63.73,63.73l403.64 0 0 -127.46z"/>
   <path class="fil6" d="M1140.04 2124.48c-16.74,0 -33.05,-6.63 -45.03,-18.7 -14.7,-14.7 -21.33,-35.6 -17.68,-56.17l45.04 -255.35c2.21,-12.83 8.5,-24.73 17.67,-33.9l630.95 -630.95c77.5,-77.58 153.64,-56.68 195.27,-15.04l105.12 105.12c58.04,58.04 58.04,152.27 0,210.31l-630.95 630.95c-9.17,9.26 -21.07,15.46 -33.99,17.76l-255.35 44.95 -11.05 1.02zm255.36 -108.77l0.85 0 -0.85 0z"/>
   <path class="fil7" d="M1879.59 1077.15c-33.31,0 -70.79,14.45 -108.6,52.26l-630.95 630.95c-9.17,9.18 -15.46,21.07 -17.67,33.9l-45.04 255.36c-3.65,20.56 2.98,41.46 17.68,56.16 0.68,0.69 1.27,1.28 1.95,1.87l931.25 -931.33 -62.03 -62.03c-21.25,-21.24 -51.67,-37.13 -86.59,-37.13l0 -0.01z"/>
  </g>
 </g>
</svg>
