<?xml version="1.0" encoding="UTF-8"?>
<!DOCTYPE svg PUBLIC "-//W3C//DTD SVG 1.1//EN" "http://www.w3.org/Graphics/SVG/1.1/DTD/svg11.dtd">
<!-- Creator: CorelDRAW 2019 (64-Bit Evaluation Version) -->
<svg xmlns="http://www.w3.org/2000/svg" xml:space="preserve" width="297mm" height="211.718mm" version="1.1" style="shape-rendering:geometricPrecision; text-rendering:geometricPrecision; image-rendering:optimizeQuality; fill-rule:evenodd; clip-rule:evenodd"
viewBox="0 0 29700 21171.8"
 xmlns:xlink="http://www.w3.org/1999/xlink">
 <defs>
  <style type="text/css">
   <![CDATA[
    .str0 {stroke:#01B7FF;stroke-width:20;stroke-miterlimit:22.9256}
    .fil2 {fill:#01B7FF;fill-rule:nonzero}
    .fil1 {fill:white;fill-rule:nonzero}
    .fil3 {fill:white;fill-rule:nonzero}
    .fil4 {fill:#D4E6FA;fill-rule:nonzero;fill-opacity:0.419608}
    .fil0 {fill:url(#id0);fill-rule:nonzero}
   ]]>
  </style>
  <linearGradient id="id0" gradientUnits="userSpaceOnUse" x1="14761.94" y1="557.34" x2="8169.51" y2="20604.04">
   <stop offset="0" style="stop-opacity:1; stop-color:#5CD1FF"/>
   <stop offset="1" style="stop-opacity:1; stop-color:#0B8DEA"/>
  </linearGradient>
 </defs>
 <g id="Layer_x0020_1">
  <metadata id="CorelCorpID_0Corel-Layer"/>
  <g id="_1780438509392">
   <path class="fil0" d="M-0.51 20946.1l32.1 -20938.98 20673.84 0 0 -0.01 2188.61 0c23.56,79.95 34.45,162.06 34.45,245.61 0,2003.93 -7305.21,2676.66 -7305.21,7204.73 0,2716.71 3277.62,3929.35 2894,6807.72 -1156.51,8677.42 -14553.91,6702.89 -18517.79,6680.93zm16955.42 -6786.76c-1.08,59.52 -5.26,116.98 -8.19,175.28 5.02,-58.83 8.19,-117.35 8.19,-175.28z"/>
   <path class="fil1" d="M20705.44 7.11c0,0 -0.83,26.14 -2.41,76.77 -0.64,25.32 -1.26,56.78 -6.01,93.91 -4.26,37.13 -6.74,80.53 -16.63,128.64 -30.9,192.55 -115.61,475.71 -323,779.79 -204.61,305.06 -522.92,623.66 -924.58,937.95 -400.51,316.84 -881.46,634.22 -1404.26,980.69 -521.52,347.89 -1087.69,726.22 -1635.27,1190.79 -136.97,115.87 -271.75,238.03 -403.35,366.56 -131.92,128.19 -260.62,262.96 -382.84,405.94 -246.21,284.31 -468.18,600.86 -648.16,947.34 -90.43,173 -167.19,354.66 -233.27,541.34 -66.41,186.63 -119.03,379.7 -156.66,576.88 -38.36,196.95 -65.3,397.66 -75.35,600.51 -3.96,50.61 -6.06,101.39 -6.34,152.31 -0.64,50.65 -2.92,102.3 -2.19,152.32 4.1,102.2 2.19,205.77 11.25,307.46 27.47,407.85 100.1,817.94 224.47,1213.63 58.59,199.05 133.62,393.31 211.03,586.48 80.31,192.14 167.01,381.86 259.36,569.01 367.71,749.06 809.53,1464.75 1122.54,2230.75 154.82,382.65 280.32,775.43 353.45,1174.31 73.82,398.43 99.78,800.88 83.89,1193.35 -21.46,393.9 -83.67,778.48 -196.23,1140.83 -112.26,361.94 -264.81,703 -453.02,1010.96 -376.71,617.66 -875.08,1102.42 -1382.36,1471.62 -253.4,186.34 -511.66,343.09 -763.99,478.36 -251.38,137.58 -499.95,248.03 -734.68,347.81 -472.34,193.81 -898.27,324.75 -1251.44,420.81 -354.35,92.29 -635.49,153.61 -827.96,190.98 -192.64,36.57 -295.38,56.08 -295.38,56.08 0,0 102.57,-20.32 294.9,-58.44 192.12,-38.9 472.71,-102.46 826.01,-197.52 352.12,-98.8 776.53,-233.02 1246.23,-430.18 233.42,-101.41 480.41,-213.56 729.78,-352.66 250.37,-136.73 507.61,-292.63 759.15,-479.07 503.85,-368.81 997.65,-852.08 1369.72,-1465.98 185.93,-306.07 336.23,-644.72 446.55,-1003.87 110.6,-359.11 171.23,-741.89 191.41,-1130.7 14.72,-391.1 -12.19,-788.95 -86.42,-1184.12 -73.62,-395.27 -199.13,-784.52 -354.01,-1164.34 -312.94,-760.4 -756.08,-1473.36 -1127.2,-2224.89 -92.23,-188.23 -178.92,-379.3 -259.27,-572.95 -77.44,-194.76 -152.48,-390.71 -211.06,-591.7 -124.37,-399.86 -196.58,-812.99 -223.24,-1226.47 -8.83,-103.5 -6.6,-205.77 -10.44,-308.39 -0.61,-52.46 1.84,-103.17 2.61,-154.77 0.44,-51.39 2.69,-102.64 6.84,-153.76 10.73,-204.78 38.49,-407.51 77.78,-606.4 38.57,-199.12 92.29,-394.08 159.89,-582.47 67.28,-188.42 145.33,-371.7 237.08,-546.08 182.66,-349.27 407.39,-667.77 655.95,-953.23 123.44,-143.58 253.26,-278.77 386.2,-407.25 132.63,-128.81 268.34,-251.15 406.14,-367.05 550.93,-464.82 1119.02,-842.09 1641.65,-1188.66 523.23,-346.13 1006.18,-658.95 1408.4,-971.65 403.21,-310.36 722.82,-625.29 929.12,-927.62 209.04,-301.29 295.81,-582.98 328.21,-775.04 10.28,-47.99 13.09,-91.26 17.64,-128.34 5.05,-37.06 5.92,-68.52 6.74,-93.85 2,-50.61 3.03,-76.73 3.03,-76.73z"/>
   <path class="fil2 str0" d="M21573.17 252.71c0,0 -1.26,23.71 -3.69,69.67 -2.99,45.79 -13.94,113.74 -40.37,198.91 -29.4,84.09 -76.89,184.41 -152.4,289.63 -75.01,105.42 -176.58,215.32 -301.68,325.13 -250.27,220.37 -592.37,439.78 -996.7,665.53 -404.42,226.44 -872.21,459.91 -1380.27,717.95 -507.56,258.76 -1055.59,543.94 -1611.15,886.08 -552.9,343.84 -1119.01,744.52 -1611.64,1257.56 -123.08,127.84 -241.27,262.54 -350.87,405.49 -111.09,141.76 -213.5,291.91 -305.85,449.14 -93.91,156.32 -175.56,321.16 -245.6,491.53 -71.8,169.73 -127.88,346.83 -172.19,527.23 -89.38,361.13 -121.15,737.99 -102.26,1114.36 17.23,375.34 94.55,748.86 211.13,1108.2 231.1,722.04 610.89,1386.23 1002.42,2021.24 391.52,636.42 802.77,1249.83 1124.65,1888.12 160.33,318.88 297.63,643.99 393.7,974.78 95.97,330.47 150.73,666.34 147.78,995.65 -4.8,656.33 -162.14,1268.83 -387.79,1792.5 -224.52,526.15 -512.08,969.43 -799.65,1332.54 -288.71,363.1 -576.93,649.3 -831.25,863.63 -253.49,215.77 -472.49,360.42 -625.36,451.56 -77.08,44.63 -136.73,77.95 -178.13,98.08 -41.01,20.85 -62.2,31.61 -62.2,31.61 0,0 21.11,-10.94 61.94,-32.14 41.23,-20.46 100.57,-54.27 177.23,-99.5 152.01,-92.35 369.58,-238.68 620.88,-456.22 252.09,-216.09 537.37,-504.15 822.2,-868.56 283.45,-364.68 565.88,-808.42 788.7,-1331.9 223.02,-521.93 377.37,-1129.95 380.29,-1782.4 1.97,-324.45 -53.13,-657.63 -149.23,-984.79 -96.19,-327.72 -233.47,-650.32 -393.96,-967.2 -322.14,-634.4 -734.46,-1245.76 -1128.36,-1881.92 -393.75,-634.86 -777.9,-1300.69 -1013.04,-2029.34 -239.84,-724.85 -286.16,-1518.07 -103.56,-2249.07 45.38,-182.5 102.68,-361.61 175.79,-533.14 71.37,-172.16 154.42,-338.6 249.76,-496.27 93.75,-158.6 197.58,-309.87 310.03,-452.53 110.95,-143.88 230.45,-279.27 354.76,-407.66 497.57,-515.15 1067.06,-915.54 1622.34,-1258.71 557.94,-341.41 1107.42,-625.32 1615.91,-882.73 508.47,-257.71 978.03,-486.84 1383.87,-709.42 405.61,-222.1 748.69,-438.18 999.99,-655.81 125.61,-108.42 227.72,-217.1 303.34,-321.51 76.09,-104.22 124.27,-203.79 154.29,-287.43 27.08,-84.76 38.57,-152.43 41.94,-198.22 2.8,-45.94 4.26,-69.65 4.26,-69.65z"/>
   <path class="fil3" d="M21076.87 7.11c0,0 -0.91,26.19 -2.65,76.89 -0.72,25.37 -1.41,56.89 -6.31,94.07 -4.36,37.19 -6.96,80.61 -17.02,128.76 -31.52,192.74 -117.15,475.88 -325.53,779.48 -205.63,304.6 -525.01,622.42 -927.99,935.83 -401.91,315.86 -884.53,632.09 -1408.14,979.56 -522.66,348.39 -1090.33,727.4 -1639.75,1193.19 -137.4,116.17 -272.67,238.69 -404.77,367.61 -132.43,128.58 -261.63,263.79 -384.41,407.27 -247.23,285.32 -470.28,603.15 -651.23,951.17 -90.9,173.76 -168.1,356.25 -234.55,543.8 -66.81,187.51 -119.75,381.48 -157.62,579.59 -38.62,197.88 -65.76,399.53 -75.92,603.28 -4.01,50.85 -6.12,101.84 -6.44,152.99 -0.65,51 -2.95,102.5 -2.25,153.27 4.1,102.5 2.13,205.92 11.19,308.27 27.47,410.12 100.26,821.73 225,1219.21 58.79,199.89 134.01,394.9 211.65,588.81 80.53,192.86 167.47,383.25 260.01,570.98 369.05,751.15 811.77,1467.69 1125.05,2233.72 154.96,382.67 280.55,775.27 353.78,1173.9 73.91,398.31 100.01,800.2 84.27,1193 -21.33,393.14 -83.37,777.87 -195.7,1139.86 -112.05,361.71 -264.35,702.56 -452.34,1010.39 -376.27,617.41 -874.31,1102.27 -1381.54,1471.68 -253.3,186.62 -511.83,343.04 -763.9,479.09 -251.11,138.42 -499.53,249.7 -734.22,350.28 -472.23,195.4 -898.39,327.82 -1251.82,425.09 -354.62,93.48 -636.06,155.73 -828.78,193.75 -192.87,37.23 -295.73,57.07 -295.73,57.07 0,0 102.82,-20.06 295.62,-57.68 192.61,-38.4 473.92,-101.24 828.26,-195.44 353.18,-97.96 778.95,-231.21 1250.49,-427.48 234.34,-100.99 482.37,-212.73 732.96,-351.51 251.56,-136.45 509.47,-293.24 762.05,-480.13 505.77,-369.92 1001.77,-854.9 1375.69,-1471.33 186.83,-307.34 337.92,-647.45 448.85,-1008.17 111.24,-360.82 172.26,-744.86 192.68,-1135.87 14.91,-392.25 -11.94,-792.14 -86.36,-1188.92 -73.78,-396.97 -199.68,-787.85 -354.96,-1169.06 -313.83,-763.21 -757.74,-1477.97 -1128.89,-2230.18 -92.38,-188.35 -179.18,-379.46 -259.58,-573.11 -77.51,-194.75 -152.61,-390.66 -211.24,-591.53 -124.46,-399.56 -196.77,-812.7 -223.54,-1225.44 -8.87,-103.19 -6.69,-206.01 -10.56,-308.71 -0.62,-51.91 1.81,-102.96 2.57,-154.39 0.42,-51.36 2.64,-102.59 6.78,-153.66 10.62,-204.63 38.3,-407.17 77.49,-605.87 38.47,-198.92 92.05,-393.7 159.53,-581.89 67.14,-188.25 145.04,-371.37 236.66,-545.63 182.37,-349.03 406.83,-667.43 655.29,-952.95 123.37,-143.61 253.14,-278.86 386.08,-407.41 132.62,-128.9 268.36,-251.34 406.2,-367.38 551.11,-465.32 1119.82,-843.3 1643.24,-1190.65 524.34,-346.44 1007.43,-661.56 1409.74,-976.4 403.36,-312.42 723.09,-629.3 929.15,-933.2 208.81,-302.89 294.98,-585.64 326.87,-778.25 10.15,-48.12 12.85,-91.52 17.3,-128.68 4.94,-37.16 5.72,-68.68 6.48,-94.05 1.84,-50.7 2.81,-76.89 2.81,-76.89z"/>
   <path class="fil3" d="M20213.82 7.11c0,0 -0.91,26.23 -2.65,77.04 -0.72,25.41 -1.41,56.99 -6.32,94.24 -4.37,37.25 -6.97,80.75 -17.05,129 -31.58,193.09 -117.37,476.75 -326.13,780.91 -206.01,305.17 -525.99,623.58 -929.71,937.57 -402.65,316.44 -886.16,633.26 -1410.74,981.37 -523.63,349.03 -1092.35,728.75 -1642.79,1195.4 -137.65,116.39 -273.17,239.13 -405.51,368.29 -132.68,128.82 -262.12,264.28 -385.13,408.02 -247.69,285.85 -471.15,604.27 -652.44,952.93 -91.06,174.08 -168.41,356.91 -234.98,544.81 -66.94,187.85 -119.97,382.19 -157.91,580.65 -38.69,198.25 -65.88,400.28 -76.06,604.41 -4.02,50.93 -6.13,102.02 -6.45,153.27 -0.65,51.09 -2.96,102.69 -2.26,153.55 4.11,102.7 2.13,206.3 11.21,308.84 27.52,410.89 100.45,823.25 225.42,1221.46 58.89,200.26 134.26,395.64 212.04,589.91 80.68,193.21 167.79,383.95 260.5,572.04 369.73,752.54 813.26,1470.4 1127.13,2237.85 155.24,383.37 281.06,776.7 354.43,1176.07 74.05,399.04 100.19,801.68 84.42,1195.21 -21.36,393.86 -83.52,779.3 -196.06,1141.96 -112.26,362.38 -264.84,703.86 -453.18,1012.26 -376.96,618.56 -875.92,1104.31 -1384.09,1474.41 -253.77,186.96 -512.78,343.67 -765.32,479.98 -251.56,138.66 -500.45,250.16 -735.57,350.92 -473.11,195.77 -900.06,328.42 -1254.14,425.87 -355.27,93.66 -637.23,156.03 -830.31,194.12 -193.22,37.29 -296.28,57.17 -296.28,57.17 0,0 103.01,-20.1 296.17,-57.79 192.97,-38.47 474.79,-101.43 829.79,-195.79 353.83,-98.15 780.39,-231.64 1252.81,-428.28 234.77,-101.18 483.26,-213.12 734.31,-352.16 252.03,-136.71 510.42,-293.78 763.46,-481.01 506.71,-370.61 1003.63,-856.49 1378.23,-1474.06 187.18,-307.91 338.56,-648.65 449.68,-1010.03 111.45,-361.49 172.59,-746.25 193.04,-1137.98 14.94,-392.97 -11.96,-793.6 -86.51,-1191.11 -73.92,-397.71 -200.06,-789.31 -355.62,-1171.23 -314.42,-764.62 -759.15,-1480.7 -1130.99,-2234.3 -92.54,-188.7 -179.5,-380.17 -260.05,-574.18 -77.66,-195.11 -152.9,-391.37 -211.64,-592.62 -124.69,-400.3 -197.12,-814.2 -223.95,-1227.7 -8.88,-103.39 -6.7,-206.4 -10.57,-309.28 -0.63,-52.01 1.81,-103.16 2.57,-154.68 0.42,-51.46 2.64,-102.78 6.79,-153.94 10.64,-205.01 38.37,-407.93 77.63,-606.99 38.54,-199.3 92.22,-394.43 159.83,-582.98 67.26,-188.59 145.31,-372.05 237.1,-546.63 182.7,-349.68 407.58,-668.66 656.5,-954.71 123.6,-143.88 253.61,-279.38 386.8,-408.17 132.86,-129.14 268.85,-251.81 406.95,-368.06 552.12,-466.18 1121.88,-844.86 1646.28,-1192.86 525.3,-347.07 1009.28,-662.78 1412.34,-978.2 404.11,-313 724.43,-630.46 930.87,-934.93 209.19,-303.45 295.53,-586.72 327.47,-779.69 10.18,-48.2 12.88,-91.68 17.34,-128.91 4.95,-37.23 5.73,-68.81 6.49,-94.22 1.85,-50.81 2.81,-77.04 2.81,-77.04z"/>
   <path class="fil4" d="M16706.43 8974.83c-3154.51,-3819.47 6721.58,-6536.98 6378.69,-8702.33 -14.29,-90.28 -40.12,-179 -79.25,-265.39l-918.09 0c25.45,86.39 37.23,175.11 37.23,265.39 0,2165.35 -7893.68,2892.28 -7893.68,7785.1 0,2935.56 2280.45,5116.5 2280.45,7745.11 0,2337.76 -6111.85,5080.2 -9807.06,5376.24 2897.55,-102.88 4494.45,305.21 7916.59,-837.82 7260.2,-2424.98 4794.14,-8086.2 2085.12,-11366.3z"/>
  </g>
 </g>
</svg>
